<?xml version="1.0" encoding="utf-8"?>
<!-- Generator: Adobe Illustrator 23.0.1, SVG Export Plug-In . SVG Version: 6.00 Build 0)  -->
<svg version="1.1" id="fb" xmlns="http://www.w3.org/2000/svg" xmlns:xlink="http://www.w3.org/1999/xlink" x="0px" y="0px"
	 viewBox="0 0 256.22 220.18" style="enable-background:new 0 0 256.22 220.18;" xml:space="preserve">
<style type="text/css">
	.st0{fill:#FFFFFF;}
</style>
<path class="st0" d="M221.7,5.34H35.3c-6.38,0-11.56,5.18-11.56,11.56v186.41c0,6.38,5.18,11.56,11.56,11.56h100.36v-81.03h-27.21
	v-31.72h27.21V78.8c0-27.06,16.53-41.8,40.67-41.8c11.56,0,21.5,0.86,24.4,1.25v28.28h-16.7c-13.1,0-15.63,6.24-15.63,15.39v20.21
	h31.41l-4.09,31.72H168.4v81.03h53.3c6.39,0,11.56-5.17,11.57-11.56c0,0,0,0,0,0V16.9C233.26,10.51,228.09,5.34,221.7,5.34z"/>
</svg>
