<?xml version="1.0" encoding="utf-8"?>
<!-- Generator: Adobe Illustrator 23.0.1, SVG Export Plug-In . SVG Version: 6.00 Build 0)  -->
<svg version="1.1" id="ins" xmlns="http://www.w3.org/2000/svg" xmlns:xlink="http://www.w3.org/1999/xlink" x="0px" y="0px"
	 viewBox="0 0 256.22 220.18" style="enable-background:new 0 0 256.22 220.18;" xml:space="preserve">
<style type="text/css">
	.st0{fill:#FFFFFF;}
</style>
<g>
	<path class="st0" d="M128.5,24.22c27.97,0,31.29,0.11,42.33,0.61c10.21,0.47,15.76,2.17,19.45,3.61c4.89,1.9,8.38,4.17,12.05,7.84
		c3.67,3.67,5.94,7.16,7.84,12.05c1.43,3.69,3.14,9.24,3.61,19.45c0.5,11.05,0.61,14.36,0.61,42.33s-0.11,31.29-0.61,42.33
		c-0.47,10.21-2.17,15.76-3.61,19.45c-1.9,4.89-4.17,8.38-7.84,12.05c-3.67,3.67-7.16,5.94-12.05,7.84
		c-3.69,1.43-9.24,3.14-19.45,3.61c-11.05,0.5-14.36,0.61-42.33,0.61s-31.29-0.11-42.33-0.61c-10.21-0.47-15.76-2.17-19.45-3.61
		c-4.89-1.9-8.38-4.17-12.05-7.84c-3.67-3.67-5.94-7.16-7.84-12.05c-1.43-3.69-3.14-9.24-3.61-19.45
		c-0.5-11.05-0.61-14.36-0.61-42.33s0.11-31.29,0.61-42.33c0.47-10.21,2.17-15.76,3.61-19.45c1.9-4.89,4.17-8.38,7.84-12.05
		c3.67-3.67,7.16-5.94,12.05-7.84c3.69-1.43,9.24-3.14,19.45-3.61C97.22,24.32,100.53,24.22,128.5,24.22 M128.5,5.34
		c-28.45,0-32.02,0.12-43.19,0.63c-11.15,0.51-18.77,2.28-25.43,4.87c-6.89,2.68-12.73,6.26-18.56,12.08
		c-5.82,5.82-9.41,11.67-12.08,18.56c-2.59,6.66-4.36,14.28-4.87,25.43c-0.51,11.17-0.63,14.74-0.63,43.19
		c0,28.45,0.12,32.02,0.63,43.19c0.51,11.15,2.28,18.77,4.87,25.43c2.68,6.89,6.26,12.73,12.08,18.56
		c5.82,5.82,11.67,9.41,18.56,12.08c6.66,2.59,14.28,4.36,25.43,4.87c11.17,0.51,14.74,0.63,43.19,0.63s32.02-0.12,43.19-0.63
		c11.15-0.51,18.77-2.28,25.43-4.87c6.89-2.68,12.73-6.26,18.56-12.08c5.82-5.82,9.41-11.67,12.08-18.56
		c2.59-6.66,4.36-14.28,4.87-25.43c0.51-11.17,0.63-14.74,0.63-43.19s-0.12-32.02-0.63-43.19c-0.51-11.15-2.28-18.77-4.87-25.43
		c-2.68-6.89-6.26-12.73-12.08-18.56c-5.82-5.82-11.67-9.41-18.56-12.08c-6.66-2.59-14.28-4.36-25.43-4.87
		C160.52,5.46,156.95,5.34,128.5,5.34L128.5,5.34z"/>
	<path class="st0" d="M128.5,56.31c-29.71,0-53.8,24.09-53.8,53.8s24.09,53.8,53.8,53.8s53.8-24.09,53.8-53.8
		S158.21,56.31,128.5,56.31z M128.5,145.03c-19.29,0-34.92-15.63-34.92-34.92c0-19.29,15.63-34.92,34.92-34.92
		c19.29,0,34.92,15.63,34.92,34.92C163.42,129.39,147.79,145.03,128.5,145.03z"/>
	<circle class="st0" cx="184.43" cy="54.18" r="12.57"/>
</g>
</svg>
