<?xml version="1.0" encoding="utf-8"?>
<!-- Generator: Adobe Illustrator 23.0.1, SVG Export Plug-In . SVG Version: 6.00 Build 0)  -->
<svg version="1.1" id="Layer_1" xmlns="http://www.w3.org/2000/svg" xmlns:xlink="http://www.w3.org/1999/xlink" x="0px" y="0px"
	 viewBox="0 0 87.53 91.02" style="enable-background:new 0 0 87.53 91.02;" xml:space="preserve">
<style type="text/css">
	.st0{fill-rule:evenodd;clip-rule:evenodd;fill:#DC992C;}
	.st1{fill:#FFFFFF;}
</style>
<g>
	<g>
		<path class="st0" d="M0,0v37.91h0.01c0.45,26.15,19.05,47.88,43.76,53.11c24.7-5.23,43.31-26.95,43.76-53.11h0.01V0H0z"/>
	</g>
	<path class="st1" d="M73.94,40.12c-4.59-7.99-14.31-11.31-22.7-8.19c-0.22,0.08-0.44,0.16-0.65,0.24c0-0.15,0-0.3,0-0.44
		c0-12.51-10.18-22.69-22.69-22.69l-0.24,0c-0.64,0-1.37,0-2.09,0.07l-0.84,0.08l-0.66,0.53c-7.74,6.26-12.94,21.85-12.94,32.49
		c0,4.39,0.85,8.58,2.38,12.43c0.12,0.31,0.24,0.62,0.37,0.93l0.01-0.01c5.18,11.92,17.06,20.28,30.86,20.28
		c6.04,0,11.87-1.64,16.94-4.6c0.3-0.15,0.6-0.32,0.89-0.5l-0.02-0.02c4.57-2.85,8.47-6.8,11.26-11.59
		C77.22,53.37,77.27,45.91,73.94,40.12z M55.67,52.98c-1.91,0-3.67-0.67-5.06-1.79l0.01-0.01c-0.13-0.11-0.27-0.22-0.4-0.32
		c-1.36-1.25-2.29-2.96-2.55-4.88l0.01,0c-0.01-0.06-0.02-0.12-0.03-0.18c-0.03-0.29-0.05-0.58-0.05-0.88
		c0-1.18,0.26-2.31,0.72-3.32l0.01,0.01c0.08-0.17,0.16-0.33,0.23-0.5c0.69-1.29,1.72-2.36,2.97-3.11c0.51-0.28,1.04-0.52,1.57-0.72
		c0.81-0.27,1.67-0.42,2.56-0.42c4.45,0,8.07,3.62,8.07,8.07C63.74,49.36,60.12,52.98,55.67,52.98z M26.97,14.7
		c0.22,0,0.46,0,0.69,0l0.25,0c9.39,0,17.03,7.64,17.03,17.03c0,1.95-0.32,3.84-0.96,5.65c-3.28-4.09-8.31-6.69-13.85-6.69
		c-5.02,0-9.56,2.1-12.79,5.47C18.68,28.15,22.34,18.99,26.97,14.7z M18.79,52.61c-0.48-1.32-0.73-2.76-0.73-4.21
		c0-6.65,5.41-12.07,12.07-12.07c5.95,0,11.05,4.4,11.93,10.26c0.06,0.46,0.14,0.91,0.24,1.36c-0.18-0.01-0.37-0.01-0.55-0.01
		c-7.62,0-13.82,6.2-13.82,13.82c0,1.04,0.11,2.05,0.33,3.02C24.07,61.71,20.76,57.5,18.79,52.61z M40.15,69.8l0-0.03
		c-3.81-0.72-6.57-4.09-6.57-8.02c0-4.5,3.66-8.16,8.16-8.16c1.82,0,3.58,0.62,5.01,1.73c0.78,0.67,1.63,1.25,2.54,1.73
		c-1.09,1.57-1.73,3.49-1.73,5.55c0,2.73,1.14,5.2,2.97,6.97c-1.88,0.4-3.81,0.61-5.77,0.61C43.19,70.18,41.65,70.05,40.15,69.8z
		 M68.95,56.26c-2.44,4.19-5.9,7.61-9.96,10.01c-0.53,0.24-1.14,0.37-1.73,0.37c-2.22,0-4.03-1.81-4.03-4.03
		c0-2.09,1.57-3.82,3.65-4.02l0-0.01c7.01-0.61,12.52-6.51,12.52-13.67c0-0.49-0.03-0.97-0.08-1.44
		C71.35,47.45,71.23,52.39,68.95,56.26z"/>
</g>
</svg>
