<?xml version="1.0" encoding="utf-8"?>
<!-- Generator: Adobe Illustrator 23.0.1, SVG Export Plug-In . SVG Version: 6.00 Build 0)  -->
<svg version="1.1" id="tw" xmlns="http://www.w3.org/2000/svg" xmlns:xlink="http://www.w3.org/1999/xlink" x="0px" y="0px"
	 viewBox="0 0 256.22 220.18" style="enable-background:new 0 0 256.22 220.18;" xml:space="preserve">
<style type="text/css">
	.st0{fill:#FFFFFF;}
</style>
<g id="Logo__x2014__FIXED">
	<g>
		<path class="st0" d="M89.27,208.87c88.56,0,137.01-73.44,137.01-137.01c0-2.07,0-4.13-0.09-6.2c9.39-6.76,17.56-15.31,24.04-24.98
			c-8.64,3.85-17.94,6.39-27.7,7.61c9.95-5.92,17.56-15.4,21.22-26.67c-9.3,5.54-19.63,9.48-30.61,11.64
			c-8.83-9.39-21.32-15.21-35.12-15.21c-26.58,0-48.18,21.6-48.18,48.18c0,3.76,0.47,7.42,1.22,10.99
			c-40.01-1.97-75.5-21.22-99.26-50.34c-4.13,7.14-6.48,15.4-6.48,24.23c0,16.72,8.55,31.46,21.41,40.1
			c-7.89-0.28-15.31-2.44-21.79-6.01c0,0.19,0,0.38,0,0.66c0,23.29,16.62,42.82,38.6,47.24c-4.04,1.13-8.26,1.69-12.68,1.69
			c-3.1,0-6.1-0.28-9.02-0.85c6.1,19.16,23.95,33.06,44.98,33.43c-16.53,12.96-37.28,20.66-59.82,20.66c-3.85,0-7.7-0.19-11.46-0.66
			C36.78,200.89,62.13,208.87,89.27,208.87"/>
	</g>
</g>
</svg>
